<?xml version="1.0" encoding="UTF-8" standalone="no"?>
<svg xmlns:dc="http://purl.org/dc/elements/1.1/" xmlns:cc="http://creativecommons.org/ns#" xmlns:rdf="http://www.w3.org/1999/02/22-rdf-syntax-ns#"
    xmlns="http://www.w3.org/2000/svg" viewBox="0 0 518.71332 72.109596" height="72.109596" width="518.71332"
    xml:space="preserve" id="svg2" version="1.1"><metadata
     id="metadata8"><rdf:RDF><cc:Work
         rdf:about=""><dc:format>image/svg+xml</dc:format><dc:type
           rdf:resource="http://purl.org/dc/dcmitype/StillImage" /></cc:Work></rdf:RDF></metadata><defs
     id="defs6"><clipPath
       id="clipPath26"
       clipPathUnits="userSpaceOnUse"><path
         id="path24"
         d="M 0,54.082 H 389.035 V 0 H 0 Z" /></clipPath></defs><g
     transform="matrix(1.3333333,0,0,-1.3333333,0,72.1096)"
     id="g10"><g
       transform="translate(9e-4,54.0819)"
       id="g12"><path
         id="path14"
         style="fill:#035aa7;fill-opacity:1;fill-rule:nonzero;stroke:none"
         d="M 0,0 V -54.082 H 290.885 L 283.251,-27.04 290.885,0 Z" /></g><g
       transform="translate(297.7029,54.0819)"
       id="g16"><path
         id="path18"
         style="fill:#c4262f;fill-opacity:1;fill-rule:nonzero;stroke:none"
         d="M 0,0 -7.15,-27.04 0,-54.082 H 91.331 V 0 Z" /></g><g
       id="g20"><g
         clip-path="url(#clipPath26)"
         id="g22"><g
           transform="translate(123.1231,35.338)"
           id="g28"><path
             id="path30"
             style="fill:#ffffff;fill-opacity:1;fill-rule:evenodd;stroke:none"
             d="m 0,0 h -9.382 v -5.768 h 8.638 c 0.636,0 1.111,-0.162 1.424,-0.486 0.313,-0.325 0.469,-0.753 0.469,-1.284 0,-0.532 -0.154,-0.965 -0.462,-1.3 C 0.378,-9.173 -0.099,-9.34 -0.744,-9.34 h -8.638 v -6.686 h 9.704 c 0.655,0 1.148,-0.173 1.48,-0.519 0.332,-0.346 0.497,-0.806 0.497,-1.381 0,-0.554 -0.165,-1.004 -0.497,-1.35 -0.332,-0.346 -0.825,-0.519 -1.48,-0.519 h -11.316 c -0.907,0 -1.559,0.23 -1.956,0.688 -0.398,0.459 -0.596,1.201 -0.596,2.226 V 0.757 c 0,0.683 0.088,1.241 0.266,1.673 0.178,0.432 0.456,0.747 0.834,0.945 0.379,0.197 0.863,0.295 1.452,0.295 L 0,3.67 C 0.664,3.67 1.157,3.502 1.479,3.166 1.802,2.829 1.963,2.388 1.963,1.844 1.963,1.288 1.802,0.842 1.479,0.505 1.157,0.168 0.664,0 0,0" /></g><g
           transform="translate(43.3976,8.0953)"
           id="g32"><path
             id="path34"
             style="fill:#ffffff;fill-opacity:1;fill-rule:evenodd;stroke:none"
             d="m 0,0 c -5.523,-0.514 -10.285,2.535 -12.51,7.469 -1.663,4.593 -3.1,9.244 -8.265,11.758 C -14.9,19.409 -10.413,16.045 -8.037,9.133 -6.189,5.087 -3.751,2.042 0,0 m -34.638,20.501 c 2.207,5.263 7.077,7.521 12.59,6.768 4.937,-1.069 9.99,-2.048 14.748,1.199 -2.675,-5.394 -7.696,-7.229 -15.062,-5.507 -4.534,0.598 -8.626,-0.222 -12.276,-2.46 M 1.175,38.176 c 3.7,-5.033 3.329,-10.331 -0.112,-14.273 -3.44,-3.284 -6.858,-6.718 -6.271,-12.54 -3.586,5.49 -2.753,10.645 2.498,15.467 2.809,3.255 4.104,7.038 3.885,11.346" /></g><g
           transform="translate(268.8888,20.8521)"
           id="g36"><path
             id="path38"
             style="fill:#ffffff;fill-opacity:1;fill-rule:evenodd;stroke:none"
             d="m 0,0 c 0,-1.204 -0.257,-2.234 -0.771,-3.091 -0.514,-0.857 -1.273,-1.507 -2.278,-1.948 -1.005,-0.442 -2.226,-0.663 -3.666,-0.663 -1.373,0 -2.551,0.239 -3.532,0.719 -0.982,0.479 -1.705,1.079 -2.173,1.796 -0.467,0.72 -0.701,1.442 -0.701,2.166 0,0.48 0.149,0.89 0.448,1.23 0.3,0.341 0.679,0.512 1.136,0.512 0.402,0 0.711,-0.113 0.926,-0.336 0.215,-0.225 0.42,-0.54 0.616,-0.947 0.392,-0.779 0.861,-1.361 1.408,-1.746 0.546,-0.383 1.291,-0.576 2.234,-0.576 0.765,0 1.393,0.196 1.884,0.585 0.49,0.39 0.736,0.835 0.736,1.337 0,0.77 -0.255,1.331 -0.764,1.683 -0.509,0.352 -1.347,0.688 -2.514,1.009 -1.317,0.374 -2.389,0.766 -3.217,1.177 -0.826,0.411 -1.487,0.953 -1.982,1.626 -0.495,0.673 -0.742,1.5 -0.742,2.483 0,0.875 0.228,1.702 0.686,2.482 0.458,0.78 1.133,1.401 2.026,1.866 0.892,0.465 1.969,0.697 3.23,0.697 0.99,0 1.881,-0.118 2.671,-0.352 0.789,-0.235 1.448,-0.55 1.976,-0.944 0.528,-0.395 0.929,-0.833 1.206,-1.313 0.275,-0.48 0.413,-0.95 0.413,-1.409 0,-0.501 -0.148,-0.912 -0.443,-1.232 -0.294,-0.32 -0.712,-0.48 -1.254,-0.48 -0.394,0 -0.728,0.127 -1.003,0.383 -0.277,0.256 -0.593,0.64 -0.948,1.151 -0.29,0.427 -0.63,0.769 -1.022,1.026 -0.393,0.256 -0.925,0.384 -1.597,0.384 -0.691,0 -1.264,-0.168 -1.722,-0.504 C -9.191,8.434 -9.42,8.015 -9.42,7.513 -9.42,7.054 -9.252,6.677 -8.916,6.383 -8.58,6.09 -8.127,5.847 -7.558,5.654 -6.987,5.462 -6.203,5.228 -5.204,4.95 -4.017,4.619 -3.047,4.224 -2.294,3.765 -1.54,3.306 -0.971,2.764 -0.582,2.139 -0.194,1.514 0,0.801 0,0 m -26.218,4.589 h 6.942 c -0.093,1.491 -0.447,2.606 -1.059,3.347 -0.612,0.739 -1.419,1.109 -2.419,1.109 -0.953,0 -1.736,-0.375 -2.349,-1.126 -0.612,-0.751 -0.984,-1.861 -1.115,-3.33 m 7.489,-2.491 h -7.489 c 0.01,-0.993 0.185,-1.869 0.527,-2.626 0.34,-0.759 0.795,-1.329 1.36,-1.714 0.565,-0.384 1.189,-0.576 1.872,-0.576 0.458,0 0.876,0.061 1.255,0.183 0.379,0.123 0.745,0.316 1.1,0.577 0.356,0.262 0.683,0.542 0.982,0.841 0.299,0.299 0.687,0.704 1.164,1.217 0.196,0.192 0.477,0.288 0.842,0.288 0.392,0 0.71,-0.122 0.953,-0.367 0.243,-0.245 0.364,-0.591 0.364,-1.038 0,-0.395 -0.136,-0.856 -0.406,-1.382 -0.271,-0.527 -0.68,-1.033 -1.228,-1.518 -0.546,-0.485 -1.233,-0.886 -2.06,-1.206 -0.828,-0.32 -1.778,-0.479 -2.855,-0.479 -2.458,0 -4.368,0.8 -5.731,2.4 -1.363,1.601 -2.044,3.772 -2.044,6.514 0,1.29 0.167,2.488 0.504,3.593 0.336,1.104 0.825,2.05 1.47,2.84 0.643,0.79 1.437,1.395 2.381,1.816 0.944,0.422 1.991,0.632 3.141,0.632 1.495,0 2.778,-0.36 3.849,-1.081 1.07,-0.72 1.872,-1.652 2.405,-2.795 0.532,-1.143 0.799,-2.307 0.799,-3.492 0,-1.101 -0.276,-1.813 -0.827,-2.139 -0.551,-0.325 -1.328,-0.488 -2.328,-0.488 M -32.641,0 c 0,-1.204 -0.256,-2.234 -0.771,-3.091 -0.514,-0.857 -1.273,-1.507 -2.277,-1.948 -1.005,-0.442 -2.227,-0.663 -3.666,-0.663 -1.374,0 -2.551,0.239 -3.533,0.719 -0.981,0.479 -1.706,1.079 -2.173,1.796 -0.466,0.72 -0.701,1.442 -0.701,2.166 0,0.48 0.15,0.89 0.449,1.23 0.299,0.341 0.677,0.512 1.136,0.512 0.402,0 0.71,-0.113 0.925,-0.336 0.215,-0.225 0.42,-0.54 0.616,-0.947 0.393,-0.779 0.862,-1.361 1.407,-1.746 0.547,-0.383 1.292,-0.576 2.235,-0.576 0.765,0 1.393,0.196 1.885,0.585 0.49,0.39 0.735,0.835 0.735,1.337 0,0.77 -0.255,1.331 -0.764,1.683 -0.508,0.352 -1.346,0.688 -2.514,1.009 -1.317,0.374 -2.389,0.766 -3.216,1.177 -0.826,0.411 -1.487,0.953 -1.983,1.626 -0.495,0.673 -0.742,1.5 -0.742,2.483 0,0.875 0.229,1.702 0.687,2.482 0.458,0.78 1.133,1.401 2.025,1.866 0.893,0.465 1.97,0.697 3.231,0.697 0.99,0 1.88,-0.118 2.67,-0.352 0.79,-0.235 1.449,-0.55 1.976,-0.944 0.528,-0.395 0.93,-0.833 1.205,-1.313 0.277,-0.48 0.414,-0.95 0.414,-1.409 0,-0.501 -0.147,-0.912 -0.441,-1.232 -0.296,-0.32 -0.714,-0.48 -1.257,-0.48 -0.393,0 -0.727,0.127 -1.002,0.383 -0.276,0.256 -0.592,0.64 -0.947,1.151 -0.29,0.427 -0.631,0.769 -1.023,1.026 -0.392,0.256 -0.924,0.384 -1.597,0.384 -0.691,0 -1.265,-0.168 -1.722,-0.504 -0.458,-0.337 -0.687,-0.756 -0.687,-1.258 0,-0.459 0.168,-0.836 0.504,-1.13 0.336,-0.293 0.789,-0.536 1.359,-0.729 0.57,-0.192 1.354,-0.426 2.353,-0.704 1.188,-0.331 2.158,-0.726 2.91,-1.185 0.754,-0.459 1.324,-1.001 1.712,-1.626 0.388,-0.625 0.582,-1.338 0.582,-2.139 m -18.167,14.093 c -0.532,0 -0.987,0.186 -1.365,0.558 -0.377,0.372 -0.566,0.899 -0.566,1.58 0,0.617 0.193,1.125 0.581,1.524 0.387,0.399 0.837,0.598 1.35,0.598 0.494,0 0.932,-0.181 1.315,-0.542 0.383,-0.362 0.573,-0.889 0.573,-1.58 0,-0.67 -0.186,-1.194 -0.559,-1.572 -0.373,-0.377 -0.816,-0.566 -1.329,-0.566 M -48.92,9.581 V -3.046 c 0,-0.875 -0.182,-1.536 -0.545,-1.984 -0.364,-0.449 -0.826,-0.672 -1.386,-0.672 -0.559,0 -1.014,0.229 -1.364,0.687 -0.349,0.46 -0.524,1.116 -0.524,1.969 V 9.452 c 0,0.864 0.175,1.515 0.524,1.952 0.35,0.438 0.805,0.657 1.364,0.657 0.56,0 1.022,-0.219 1.386,-0.657 0.363,-0.437 0.545,-1.045 0.545,-1.823 M -61.513,0.599 v -3.646 c 0,-0.886 -0.181,-1.549 -0.546,-1.991 -0.364,-0.442 -0.825,-0.664 -1.385,-0.664 -0.55,0 -1.002,0.223 -1.357,0.672 -0.354,0.448 -0.531,1.109 -0.531,1.984 V 9.116 c 0,1.963 0.62,2.945 1.86,2.945 0.635,0 1.091,-0.23 1.371,-0.69 0.28,-0.459 0.434,-1.139 0.462,-2.037 0.458,0.898 0.928,1.578 1.41,2.037 0.481,0.46 1.124,0.69 1.927,0.69 0.805,0 1.585,-0.23 2.342,-0.69 0.757,-0.459 1.136,-1.069 1.136,-1.827 0,-0.535 -0.161,-0.976 -0.484,-1.323 C -55.63,7.874 -55.979,7.7 -56.353,7.7 c -0.14,0 -0.479,0.098 -1.016,0.296 -0.537,0.197 -1.012,0.296 -1.423,0.296 -0.562,0 -1.019,-0.168 -1.374,-0.504 C -60.521,7.452 -60.798,6.954 -60.994,6.292 -61.19,5.632 -61.326,4.846 -61.4,3.934 -61.476,3.022 -61.513,1.91 -61.513,0.599 m -10.713,2.653 c 0,1.151 -0.153,2.14 -0.462,2.966 -0.308,0.825 -0.735,1.46 -1.282,1.902 -0.546,0.443 -1.151,0.663 -1.814,0.663 -1.055,0 -1.945,-0.474 -2.669,-1.423 -0.724,-0.948 -1.086,-2.344 -1.086,-4.187 0,-1.737 0.36,-3.088 1.08,-4.053 0.718,-0.965 1.611,-1.446 2.675,-1.446 0.636,0 1.224,0.21 1.765,0.631 0.542,0.421 0.976,1.052 1.303,1.894 0.327,0.842 0.49,1.86 0.49,3.053 m -7.495,6.351 v -0.53 c 0.72,1.017 1.468,1.764 2.243,2.24 0.777,0.477 1.656,0.715 2.637,0.715 1.178,0 2.263,-0.347 3.253,-1.04 0.991,-0.694 1.774,-1.707 2.349,-3.04 0.575,-1.334 0.862,-2.913 0.862,-4.737 0,-1.345 -0.166,-2.579 -0.498,-3.705 -0.331,-1.125 -0.787,-2.069 -1.366,-2.832 -0.58,-0.763 -1.265,-1.35 -2.055,-1.761 -0.79,-0.41 -1.638,-0.615 -2.545,-0.615 -1.094,0 -2.013,0.25 -2.756,0.752 -0.742,0.501 -1.451,1.237 -2.124,2.207 v -7.416 c 0,-1.922 -0.612,-2.883 -1.837,-2.883 -0.72,0 -1.197,0.248 -1.43,0.744 -0.235,0.496 -0.351,1.22 -0.351,2.169 V 9.579 c 0,0.832 0.158,1.454 0.476,1.865 0.318,0.411 0.753,0.616 1.305,0.616 0.542,0 0.984,-0.211 1.325,-0.634 0.341,-0.424 0.512,-1.031 0.512,-1.823 M -92.027,0.599 v -3.646 c 0,-0.886 -0.182,-1.549 -0.545,-1.991 -0.365,-0.442 -0.826,-0.664 -1.386,-0.664 -0.55,0 -1.002,0.223 -1.357,0.672 -0.354,0.448 -0.532,1.109 -0.532,1.984 V 9.116 c 0,1.963 0.62,2.945 1.861,2.945 0.635,0 1.091,-0.23 1.371,-0.69 0.28,-0.459 0.434,-1.139 0.462,-2.037 0.458,0.898 0.928,1.578 1.409,2.037 0.482,0.46 1.124,0.69 1.929,0.69 0.803,0 1.584,-0.23 2.341,-0.69 0.757,-0.459 1.136,-1.069 1.136,-1.827 0,-0.535 -0.162,-0.976 -0.484,-1.323 -0.322,-0.347 -0.67,-0.521 -1.044,-0.521 -0.141,0 -0.479,0.098 -1.017,0.296 -0.537,0.197 -1.012,0.296 -1.423,0.296 -0.561,0 -1.019,-0.168 -1.374,-0.504 -0.356,-0.336 -0.632,-0.834 -0.828,-1.496 -0.196,-0.66 -0.332,-1.446 -0.407,-2.358 -0.074,-0.912 -0.112,-2.024 -0.112,-3.335 m -17.688,3.99 h 6.942 c -0.094,1.491 -0.447,2.606 -1.059,3.347 -0.612,0.739 -1.418,1.109 -2.419,1.109 -0.954,0 -1.736,-0.375 -2.349,-1.126 -0.612,-0.751 -0.984,-1.861 -1.115,-3.33 m 7.488,-2.491 h -7.488 c 0.01,-0.993 0.185,-1.869 0.527,-2.626 0.34,-0.759 0.794,-1.329 1.359,-1.714 0.566,-0.384 1.19,-0.576 1.872,-0.576 0.459,0 0.877,0.061 1.256,0.183 0.378,0.123 0.745,0.316 1.101,0.577 0.354,0.262 0.682,0.542 0.981,0.841 0.3,0.299 0.687,0.704 1.164,1.217 0.197,0.192 0.476,0.288 0.841,0.288 0.393,0 0.711,-0.122 0.954,-0.367 0.243,-0.245 0.364,-0.591 0.364,-1.038 0,-0.395 -0.135,-0.856 -0.406,-1.382 -0.271,-0.527 -0.68,-1.033 -1.227,-1.518 -0.547,-0.485 -1.234,-0.886 -2.062,-1.206 -0.827,-0.32 -1.778,-0.479 -2.854,-0.479 -2.458,0 -4.368,0.8 -5.731,2.4 -1.363,1.601 -2.045,3.772 -2.045,6.514 0,1.29 0.168,2.488 0.504,3.593 0.336,1.104 0.826,2.05 1.47,2.84 0.644,0.79 1.438,1.395 2.382,1.816 0.944,0.422 1.991,0.632 3.14,0.632 1.496,0 2.779,-0.36 3.85,-1.081 1.07,-0.72 1.872,-1.652 2.405,-2.795 0.532,-1.143 0.799,-2.307 0.799,-3.492 0,-1.101 -0.276,-1.813 -0.827,-2.139 -0.552,-0.325 -1.328,-0.488 -2.329,-0.488 m -20.635,9.569 h 0.42 v 2.626 c 0,0.705 0.016,1.257 0.049,1.658 0.033,0.401 0.124,0.745 0.273,1.033 0.149,0.299 0.364,0.542 0.643,0.728 0.281,0.187 0.593,0.281 0.938,0.281 0.485,0 0.923,-0.209 1.315,-0.625 0.261,-0.278 0.427,-0.617 0.496,-1.017 0.071,-0.4 0.106,-0.969 0.106,-1.705 v -2.979 h 1.402 c 0.542,0 0.956,-0.146 1.241,-0.438 0.285,-0.293 0.428,-0.669 0.428,-1.126 0,-0.586 -0.204,-0.996 -0.61,-1.23 -0.407,-0.235 -0.989,-0.352 -1.746,-0.352 h -0.715 V 0.489 c 0,-0.682 0.021,-1.208 0.063,-1.576 0.042,-0.367 0.154,-0.666 0.336,-0.895 0.182,-0.23 0.479,-0.344 0.89,-0.344 0.226,0 0.529,0.045 0.912,0.136 0.383,0.09 0.683,0.135 0.898,0.135 0.308,0 0.586,-0.141 0.835,-0.424 0.247,-0.283 0.371,-0.631 0.371,-1.047 0,-0.704 -0.336,-1.243 -1.01,-1.617 -0.673,-0.373 -1.641,-0.559 -2.902,-0.559 -1.195,0 -2.101,0.229 -2.716,0.687 -0.616,0.459 -1.019,1.094 -1.21,1.905 -0.192,0.81 -0.287,1.893 -0.287,3.248 v 8.383 h -0.505 c -0.552,0 -0.972,0.149 -1.262,0.447 -0.289,0.299 -0.434,0.677 -0.434,1.135 0,0.457 0.152,0.833 0.455,1.126 0.304,0.292 0.746,0.438 1.326,0.438 M -136.958,9.645 V 9.117 c 0.674,1.013 1.411,1.758 2.21,2.232 0.8,0.474 1.719,0.712 2.756,0.712 1.011,0 1.913,-0.251 2.708,-0.752 0.796,-0.501 1.389,-1.211 1.783,-2.128 0.252,-0.534 0.416,-1.11 0.491,-1.728 0.075,-0.62 0.113,-1.409 0.113,-2.369 v -8.13 c 0,-0.875 -0.176,-1.536 -0.527,-1.984 -0.351,-0.449 -0.808,-0.672 -1.37,-0.672 -0.571,0 -1.034,0.229 -1.39,0.687 -0.356,0.46 -0.533,1.116 -0.533,1.969 v 7.282 c 0,1.44 -0.176,2.542 -0.526,3.305 -0.351,0.763 -1.049,1.144 -2.097,1.144 -0.682,0 -1.305,-0.232 -1.865,-0.696 -0.561,-0.465 -0.972,-1.102 -1.234,-1.912 -0.187,-0.651 -0.281,-1.868 -0.281,-3.649 v -5.474 c 0,-0.886 -0.179,-1.55 -0.538,-1.992 -0.36,-0.442 -0.824,-0.664 -1.393,-0.664 -0.55,0 -1.002,0.229 -1.357,0.687 -0.354,0.46 -0.532,1.116 -0.532,1.969 V 9.581 c 0,0.832 0.159,1.453 0.476,1.864 0.317,0.41 0.751,0.616 1.302,0.616 0.335,0 0.638,-0.091 0.909,-0.272 0.27,-0.182 0.488,-0.454 0.65,-0.816 0.164,-0.363 0.245,-0.806 0.245,-1.328" /></g><g
           transform="translate(272.3077,41.3419)"
           id="g40"><path
             id="path42"
             style="fill:#ffffff;fill-opacity:1;fill-rule:evenodd;stroke:none"
             d="M 0,0 C 0.655,0 1.283,-0.176 1.885,-0.528 2.486,-0.88 2.959,-1.386 3.303,-2.044 3.647,-2.702 3.819,-3.391 3.819,-4.109 3.819,-4.825 3.65,-5.507 3.313,-6.156 2.976,-6.806 2.506,-7.312 1.902,-7.674 1.299,-8.038 0.665,-8.219 0,-8.219 c -0.665,0 -1.299,0.181 -1.902,0.545 -0.603,0.362 -1.074,0.868 -1.411,1.518 -0.337,0.649 -0.505,1.331 -0.505,2.047 0,0.718 0.172,1.407 0.515,2.065 0.344,0.658 0.817,1.164 1.419,1.516 C -1.283,-0.176 -0.654,0 0,0 m 0.003,-0.813 c -0.525,0 -1.029,-0.141 -1.511,-0.423 -0.481,-0.282 -0.861,-0.687 -1.138,-1.216 -0.279,-0.528 -0.417,-1.082 -0.417,-1.66 0,-0.575 0.135,-1.123 0.407,-1.645 0.27,-0.521 0.648,-0.928 1.134,-1.221 0.485,-0.293 0.993,-0.439 1.525,-0.439 0.535,0 1.045,0.146 1.528,0.439 0.484,0.293 0.862,0.7 1.134,1.221 0.273,0.522 0.409,1.07 0.409,1.645 0,0.578 -0.139,1.132 -0.416,1.66 C 2.38,-1.923 2,-1.518 1.516,-1.236 1.032,-0.954 0.528,-0.813 0.003,-0.813 m -1.729,-5.494 v 4.351 h 0.821 c 0.769,0 1.201,-0.003 1.294,-0.01 C 0.66,-1.992 0.872,-2.049 1.022,-2.141 1.173,-2.231 1.3,-2.371 1.4,-2.558 1.502,-2.745 1.553,-2.953 1.553,-3.182 1.553,-3.496 1.457,-3.764 1.267,-3.987 1.077,-4.21 0.81,-4.348 0.466,-4.402 0.588,-4.452 0.683,-4.506 0.75,-4.565 0.815,-4.624 0.907,-4.735 1.023,-4.899 1.054,-4.942 1.153,-5.119 1.322,-5.43 L 1.798,-6.307 H 0.776 l -0.335,0.708 c -0.226,0.475 -0.414,0.775 -0.562,0.898 -0.149,0.123 -0.337,0.185 -0.565,0.185 h -0.212 v -1.791 z m 0.828,2.483 h 0.333 c 0.472,0 0.766,0.02 0.88,0.058 0.114,0.039 0.204,0.107 0.27,0.204 0.066,0.098 0.1,0.208 0.1,0.332 0,0.12 -0.033,0.227 -0.097,0.32 -0.066,0.094 -0.156,0.16 -0.276,0.201 -0.119,0.041 -0.412,0.061 -0.877,0.061 h -0.333 z" /></g><g
           transform="translate(36.0377,32.2428)"
           id="g44"><path
             id="path46"
             style="fill:#ffffff;fill-opacity:1;fill-rule:evenodd;stroke:none"
             d="m 0,0 c -1.15,-2.561 -1.548,-5.603 -1.195,-9.126 -1.744,2.337 -4.421,4.021 -8.028,5.051 C -5.722,-3.514 -2.647,-2.155 0,0" /></g><g
           transform="translate(80.7081,31.1846)"
           id="g48"><path
             id="path50"
             style="fill:#afafaf;fill-opacity:1;fill-rule:evenodd;stroke:none"
             d="m 0,0 v 1.186 c 0,1.316 -0.533,1.56 -1.832,1.56 h -8.505 v 5.25 H 0.464 c 2.765,0 4.659,-1.464 4.659,-4.275 v -15.245 c 0,-2.811 -1.884,-4.274 -4.649,-4.274 h -6.152 c -2.765,0 -4.649,1.463 -4.649,4.274 l 0.008,7.249 c 0,2.812 1.884,4.275 4.649,4.275 z m -5.134,-8.989 c 0,-1.316 0.453,-1.56 1.751,-1.56 h 1.562 c 1.298,0 1.751,0.244 1.751,1.56 v 2.179 c 0,1.317 -0.445,1.56 -1.743,1.56 h -1.562 c -1.298,0 -1.751,-0.243 -1.751,-1.56 z m 12.362,0.956 c -2.792,-3.347 -1.436,-7.765 3.151,-7.765 h 11.099 v 6.037 h -8.506 c -0.539,0 -0.479,0.592 0,0.943 l 7.747,9.06 c 2.792,3.348 1.436,7.766 -3.151,7.766 H 6.469 V 1.971 h 8.507 c 0.538,0 0.478,-0.592 0,-0.943 z M -27.458,3.721 c 0,2.811 1.887,4.275 4.652,4.275 h 10.801 v -5.25 h -8.506 c -1.298,0 -1.751,-0.244 -1.751,-1.56 V 0.08 c 0,-1.024 0.499,-1.512 1.45,-1.512 h 5.061 c 2.205,0 3.746,-0.976 3.746,-3.756 v -6.336 c 0,-2.811 -1.884,-4.274 -4.649,-4.274 h -10.804 v 5.249 h 8.509 c 1.298,0 1.751,0.244 1.751,1.56 v 1.106 c 0,1.024 -0.499,1.512 -1.45,1.512 h -5.061 c -2.205,0 -3.749,0.975 -3.749,3.756 z" /></g></g></g></g></svg>